<mxfile host="app.diagrams.net" modified="2024-05-03T14:49:23.996Z" agent="Mozilla/5.0 (Windows NT 10.0; Win64; x64) AppleWebKit/537.36 (KHTML, like Gecko) Chrome/124.0.0.0 Safari/537.36 Edg/124.0.0.0" version="24.2.7" etag="wpEspPf8z-qejimIuNti" type="github">
  <diagram name="第 1 页" id="vMAxnqKmyP18Wetk9y52">
    <mxGraphModel>
      <root>
        <mxCell id="0" />
        <mxCell id="1" parent="0" />
      </root>
    </mxGraphModel>
  </diagram>
</mxfile>
